{"title":"Cargo 2017 1080p BluRay x264 DTS [MW]","magnet":"magnet:?xt=urn:btih:a4036e40f3b20b0735ba02b191a04a6cd272296d&dn=Cargo+2017+1080p+BluRay+x264+DTS+%5BMW%5D&tr=udp%3A%2F%2Ftracker.leechers-paradise.org%3A6969&tr=udp%3A%2F%2Fzer0day.ch%3A1337&tr=udp%3A%2F%2Fopen.demonii.com%3A1337&tr=udp%3A%2F%2Ftracker.coppersurfer.tk%3A6969&tr=udp%3A%2F%2Fexodus.desync.com%3A6969","uploader":"MFreaky","categoryP":"video","categoryS":"hd___movies","size":"2812483158","seeders":"5","leechers":"17","description":" <a href=\"https://pichub.site/image/EIl46\" rel=\"nofollow\" target=\"_NEW\">https://pichub.site/image/EIl46</a> <a href=\"\nhttps://pichub.site/image/EI6Ct\" rel=\"nofollow\" target=\"_NEW\">\nhttps://pichub.site/image/EI6Ct</a> <a href=\"\nhttps://pichub.site/image/EIPr4\" rel=\"nofollow\" target=\"_NEW\">\nhttps://pichub.site/image/EIPr4</a> <a href=\"\nhttps://pichub.site/image/EIs7y\" rel=\"nofollow\" target=\"_NEW\">\nhttps://pichub.site/image/EIs7y</a> <a href=\"\nhttps://pichub.site/image/EIXQp\" rel=\"nofollow\" target=\"_NEW\">\nhttps://pichub.site/image/EIXQp</a> <a href=\"\nhttps://pichub.site/image/EI3Gb\" rel=\"nofollow\" target=\"_NEW\">\nhttps://pichub.site/image/EI3Gb</a>\r\n\r\nIMDB <a href=\"\nhttps://www.imdb.com/title/tt3860916/\" rel=\"nofollow\" target=\"_NEW\">\nhttps://www.imdb.com/title/tt3860916/</a>\r\n\r\nVideo\r\nFormat                                   : AVC\r\nFormat/Info                              : Advanced Video Codec\r\nFormat profile                           : High@L4.1\r\nFormat settings                          : CABAC / 4 Ref Frames\r\nFormat settings, CABAC                   : Yes\r\nFormat settings, RefFrames               : 4 frames\r\nCodec ID                                 : V_MPEG4/ISO/AVC\r\nDuration                                 : 1 h 43 min\r\nBit rate                                 : 3 000 kb/s\r\nWidth                                    : 1 920 pixels\r\nHeight                                   : 858 pixels\r\nDisplay aspect ratio                     : 2.25:1\r\nFrame rate mode                          : Constant\r\nFrame rate                               : 23.976 (24000/1001) FPS\r\nColor space                              : YUV\r\nChroma subsampling                       : 4:2:0\r\nBit depth                                : 8 bits\r\nScan type                                : Progressive\r\nBits/(Pixel*Frame)                       : 0.076\r\nStream size                              : 2.07 GiB (79%)\r\nWriting library                          : x264 core 155 r2901 7d0ff22\r\n\r\nAudio\r\nFormat                                   : DTS\r\nFormat/Info                              : Digital Theater Systems\r\nCodec ID                                 : A_DTS\r\nDuration                                 : 1 h 43 min\r\nBit rate mode                            : Constant\r\nBit rate                                 : 756 kb/s\r\nChannel(s)                               : 6 channels\r\nChannel positions                        : Front: L C R, Side: L R, LFE\r\nSampling rate                            : 48.0 kHz\r\nFrame rate                               : 93.750 FPS (512 SPF)\r\nBit depth                                : 16 bits\r\nCompression mode                         : Lossy\r\nStream size                              : 560 MiB (21%)\r\nLanguage                                 : English","last_updated":"2018-09-14T12:08:27.318Z","parsed":{"xt":"urn:btih:a4036e40f3b20b0735ba02b191a04a6cd272296d","dn":"Cargo 2017 1080p BluRay x264 DTS [MW]","tr":["udp://exodus.desync.com:6969","udp://open.demonii.com:1337","udp://tracker.coppersurfer.tk:6969","udp://tracker.leechers-paradise.org:6969","udp://zer0day.ch:1337"],"infoHash":"a4036e40f3b20b0735ba02b191a04a6cd272296d","infoHashBuffer":{"type":"Buffer","data":[164,3,110,64,243,178,11,7,53,186,2,177,145,160,74,108,210,114,41,109]},"name":"Cargo 2017 1080p BluRay x264 DTS [MW]","announce":["udp://exodus.desync.com:6969","udp://open.demonii.com:1337","udp://tracker.coppersurfer.tk:6969","udp://tracker.leechers-paradise.org:6969","udp://zer0day.ch:1337"],"urlList":[]}}